<svg width="39" height="27" viewBox="0 0 39 27" fill="none" xmlns="http://www.w3.org/2000/svg">
<path d="M15.6 19.2857L25.7205 13.5L15.6 7.71429V19.2857ZM38.142 4.185C38.3955 5.09143 38.571 6.30643 38.688 7.84929C38.8245 9.39214 38.883 10.7229 38.883 11.88L39 13.5C39 17.7236 38.688 20.8286 38.142 22.815C37.6545 24.5507 36.5235 25.6693 34.7685 26.1514C33.852 26.4021 32.175 26.5757 29.601 26.6914C27.066 26.8264 24.7455 26.8843 22.6005 26.8843L19.5 27C11.3295 27 6.24 26.6914 4.2315 26.1514C2.4765 25.6693 1.3455 24.5507 0.858 22.815C0.6045 21.9086 0.429 20.6936 0.312 19.1507C0.1755 17.6079 0.117 16.2771 0.117 15.12L0 13.5C0 9.27643 0.312 6.17143 0.858 4.185C1.3455 2.44929 2.4765 1.33071 4.2315 0.848572C5.148 0.597857 6.825 0.424285 9.399 0.308571C11.934 0.173571 14.2545 0.115714 16.3995 0.115714L19.5 0C27.6705 0 32.76 0.308572 34.7685 0.848572C36.5235 1.33071 37.6545 2.44929 38.142 4.185Z" fill="white"/>
</svg>
